<svg width="27" height="27" viewBox="0 0 27 27" fill="none" xmlns="http://www.w3.org/2000/svg">
<path d="M24.3 0.540009H2.69998C1.51198 0.540009 0.539978 1.51201 0.539978 2.70001V24.3C0.539978 25.488 1.51198 26.46 2.69998 26.46H24.3C25.488 26.46 26.46 25.488 26.46 24.3V2.70001C26.46 1.51201 25.488 0.540009 24.3 0.540009Z" fill="#282828"/>
<path d="M16.416 21.6H14.256H12.096C12.096 21.6 12.096 20.304 12.096 19.44C9.12598 20.088 8.31598 17.82 8.31598 17.82C7.77598 16.74 7.23598 16.2 7.23598 16.2C6.15598 15.552 7.23598 15.66 7.23598 15.66C8.31598 15.66 8.85598 16.74 8.85598 16.74C9.82798 18.36 11.502 18.09 12.096 17.82C12.096 17.28 12.312 16.47 12.636 16.2C10.26 15.93 8.31598 14.58 8.31598 11.88C8.31598 9.17999 8.85598 8.63999 9.39598 8.09999C9.28798 7.82999 8.85598 6.85799 9.39598 5.39999C9.39598 5.39999 10.476 5.39999 11.556 7.01999C12.096 6.47999 13.716 6.47999 14.256 6.47999C14.796 6.47999 16.416 6.47999 16.956 7.01999C18.036 5.39999 19.116 5.39999 19.116 5.39999C19.71 6.85799 19.224 7.82999 19.116 8.09999C19.656 8.63999 20.196 9.17999 20.196 11.88C20.196 14.58 18.252 15.93 15.876 16.2C16.2 16.47 16.416 17.388 16.416 17.82V21.6Z" fill="white"/>
</svg>
