<svg width="25" height="25" viewBox="0 0 25 25" fill="none" xmlns="http://www.w3.org/2000/svg">
<rect width="25" height="25" rx="3" fill="white"/>
<path d="M22.9167 0H2.08333C1.5308 0 1.00089 0.219493 0.610194 0.610194C0.219493 1.00089 0 1.5308 0 2.08333L0 22.9167C0 23.4692 0.219493 23.9991 0.610194 24.3898C1.00089 24.7805 1.5308 25 2.08333 25H22.9167C23.4692 25 23.9991 24.7805 24.3898 24.3898C24.7805 23.9991 25 23.4692 25 22.9167V2.08333C25 1.5308 24.7805 1.00089 24.3898 0.610194C23.9991 0.219493 23.4692 0 22.9167 0V0ZM7.94792 19.3646H5.3125V9.375H7.94792V19.3646ZM6.72917 8.07292H6.53125C6.20802 8.07292 5.89802 7.94451 5.66946 7.71595C5.4409 7.48739 5.3125 7.1774 5.3125 6.85417C5.3125 6.53093 5.4409 6.22094 5.66946 5.99238C5.89802 5.76382 6.20802 5.63542 6.53125 5.63542H6.72917C7.0524 5.63542 7.36239 5.76382 7.59095 5.99238C7.81951 6.22094 7.94792 6.53093 7.94792 6.85417C7.94792 7.1774 7.81951 7.48739 7.59095 7.71595C7.36239 7.94451 7.0524 8.07292 6.72917 8.07292V8.07292ZM19.6875 19.3646H17.0521V14.2917C17.0521 12.8229 17.1146 11.1667 15.4271 11.1667C13.3437 11.1667 13.25 12.9792 13.25 14.8125V19.3229H10.625V9.375H13.0625V10.8437C13.4332 10.3191 13.925 9.89168 14.4963 9.59788C15.0676 9.30408 15.7014 9.15258 16.3437 9.15625C19.0729 9.15625 19.6875 10.8542 19.6875 13.1458V19.3646Z" fill="#282828"/>
</svg>
